# xmcd
# 
# Track frame offsets:
#     150
#     25630
#     40450
#     58981
#     73584
#     87136
#     104718
#     120565
#     137592
#     153663
#     178246
#     193262
# 
# Disc length: 2788
# 
# Revision: 9
# Processed by: cddbd v1.5.2PL0 Copyright (c) Steve Scherf et al.
# Submitted via: fre:ac v1.0.27
# 
DISCID=b00ae20c
DTITLE=Ariana Grande - Yours Truly
DYEAR=2013
DGENRE=Pop
TTITLE0=Honeymoon Avenue
TTITLE1=Baby I
TTITLE2=Right There feat. Big Sean
TTITLE3=Tattooed Heart
TTITLE4=Lovin' It
TTITLE5=Piano
TTITLE6=Daydreamin'
TTITLE7=The Way feat. Mac Miller
TTITLE8=You'll Never Know
TTITLE9=Almost Is Never Enough with Nathan Sykes from The Wanted
TTITLE10=Popular Song with Mika
TTITLE11=Better Left Unsaid
EXTD=Repulic Records\nUniversal Music Distribution
EXTT0=
EXTT1=
EXTT2=
EXTT3=
EXTT4=
EXTT5=
EXTT6=
EXTT7=
EXTT8=
EXTT9=
EXTT10=
EXTT11=
PLAYORDER=
